HIERARCHY
ROOT Hips
{
    OFFSET 0.000000 0.000000 0.000000
    CHANNELS 6 Xposition Yposition Zposition Zrotation Xrotation Yrotation
    JOINT Chest
    {
        OFFSET -0.000000 0.071157 0.000000
        CHANNELS 3 Zrotation Xrotation Yrotation
        JOINT Chest2
        {
            OFFSET -0.000000 0.200496 0.000000
            CHANNELS 3 Zrotation Xrotation Yrotation
            JOINT Neck
            {
                OFFSET -0.000000 0.217851 0.000000
                CHANNELS 3 Zrotation Xrotation Yrotation
                JOINT Head
                {
                    OFFSET -0.000000 0.094152 0.017355
                    CHANNELS 3 Zrotation Xrotation Yrotation
                    End Site
                    {
                        OFFSET -0.000000 0.173553 0.000000
                    }
                }
            }
            JOINT LeftCollar
            {
                OFFSET 0.034349 0.184703 -0.001098
                CHANNELS 3 Zrotation Xrotation Yrotation
                JOINT LeftShoulder
                {
                    OFFSET 0.100089 0.000000 0.000000
                    CHANNELS 3 Zrotation Xrotation Yrotation
                    JOINT LeftElbow
                    {
                        OFFSET 0.265196 0.000000 0.000000
                        CHANNELS 3 Zrotation Xrotation Yrotation
                        JOINT LeftWrist
                        {
                            OFFSET 0.220131 0.000000 0.000000
                            CHANNELS 3 Zrotation Xrotation Yrotation
                            End Site
                            {
                                OFFSET 0.000000 -0.130165 0.000000
                            }
                        }
                    }
                }
            }
            JOINT RightCollar
            {
                OFFSET -0.035053 0.184703 -0.001098
                CHANNELS 3 Zrotation Xrotation Yrotation
                JOINT RightShoulder
                {
                    OFFSET -0.100089 0.000000 0.000000
                    CHANNELS 3 Zrotation Xrotation Yrotation
                    JOINT RightElbow
                    {
                        OFFSET -0.265196 0.000000 0.000000
                        CHANNELS 3 Zrotation Xrotation Yrotation
                        JOINT RightWrist
                        {
                            OFFSET -0.220131 0.000000 0.000000
                            CHANNELS 3 Zrotation Xrotation Yrotation
                            End Site
                            {
                                OFFSET -0.000000 -0.130165 0.000000
                            }
                        }
                    }
                }
            }
        }
    }
    JOINT LeftHip
    {
        OFFSET 0.086776 0.000000 0.000000
        CHANNELS 3 Zrotation Xrotation Yrotation
        JOINT LeftKnee
        {
            OFFSET -0.000000 -0.397777 0.000000
            CHANNELS 3 Zrotation Xrotation Yrotation
            JOINT LeftAnkle
            {
                OFFSET -0.000000 -0.331973 0.000000
                CHANNELS 3 Zrotation Xrotation Yrotation
                JOINT LeftToe
                {
                    OFFSET -0.000000 -0.056405 0.130165
                    CHANNELS 3 Zrotation Xrotation Yrotation
                    End Site
                    {
                        OFFSET -0.000000 0.000000 0.034711
                    }
                }
            }
        }
    }
    JOINT RightHip
    {
        OFFSET -0.086776 0.000000 0.000000
        CHANNELS 3 Zrotation Xrotation Yrotation
        JOINT RightKnee
        {
            OFFSET -0.000000 -0.397777 0.000000
            CHANNELS 3 Zrotation Xrotation Yrotation
            JOINT RightAnkle
            {
                OFFSET -0.000000 -0.331973 0.000000
                CHANNELS 3 Zrotation Xrotation Yrotation
                JOINT RightToe
                {
                    OFFSET -0.000000 -0.056405 0.130165
                    CHANNELS 3 Zrotation Xrotation Yrotation
                    End Site
                    {
                        OFFSET -0.000000 0.000000 0.034711
                    }
                }
            }
        }
    }
}
MOTION
Frames:    10
Frame Time:    0.016667
0.033724    0.780294    -0.087196    -0.870121    0.260466    13.713619    -2.697197    18.111444    8.265186    -0.782323    11.145460    2.687981    -9.362236    15.193666    -0.612188    1.238871    2.574100    -3.319899    7.832443    13.584221    -2.938613    -151.078796    65.275894    91.682327    -31.131313    -21.265879    -126.768196    100.204826    34.891006    64.690681    -7.508968    1.686414    20.897377    12.297045    26.409952    51.166683    -31.086405    -19.455036    25.328140    -120.849083    0.205459    -12.510170    7.163861    -26.806946    2.347169    -9.694022    30.354622    13.111167    1.381188    -1.397848    8.833284    0.000000    0.000000    0.000000    3.118348    -4.508387    -11.208326    -7.086756    32.321350    -1.176839    5.208363    -23.102135    -1.354605    0.000000    0.000000    0.000000    
0.039763    0.780280    -0.081918    -0.934234    0.397493    13.790274    -2.771667    18.029732    8.332844    -0.737653    11.105264    2.702653    -9.107142    15.098216    -0.730122    0.895817    2.594398    -3.314137    7.775613    13.581198    -2.892235    -150.917328    65.286194    91.659645    -31.237022    -21.128227    -126.895149    100.077576    34.685440    64.915558    -7.514686    1.642578    20.953102    12.413739    26.564676    50.960495    -30.793299    -19.139742    25.045799    -120.450821    -0.019757    -12.395601    6.759930    -26.895065    2.047446    -9.817019    31.189043    13.220828    1.684135    -2.199931    8.878834    0.000000    0.000000    0.000000    2.758767    -4.168170    -11.126111    -6.965672    32.322063    -1.415917    5.286109    -22.760706    -1.707518    0.000000    0.000000    0.000000    
0.045799    0.780349    -0.076489    -0.918215    0.461467    13.881150    -2.876090    18.028332    8.422561    -0.779667    11.060467    2.730814    -9.009454    14.983011    -0.822637    0.980153    2.722392    -3.388339    7.795472    13.570021    -2.997223    -151.371460    65.269730    92.108856    -31.145004    -21.208956    -126.865105    100.172020    34.878044    64.768654    -7.392063    1.634714    20.892914    12.638642    26.641350    50.738094    -30.299593    -18.862677    24.946295    -120.310188    -0.091555    -12.272033    6.417554    -26.865475    1.796226    -10.211868    32.025352    12.829970    2.189925    -2.919212    9.486728    0.000000    0.000000    0.000000    2.296316    -3.782193    -10.975323    -6.904255    32.547657    -2.037710    6.622533    -22.645250    -0.475879    0.000000    0.000000    0.000000    
0.053587    0.780642    -0.069659    -0.906038    0.447143    13.969355    -2.977300    18.069639    8.501619    -0.742960    11.028991    2.747671    -9.003354    14.880449    -0.927662    1.047182    2.867578    -3.498616    7.710588    13.499042    -3.022776    -151.636459    65.265633    92.477043    -31.146366    -21.154268    -126.948006    100.555756    34.962757    64.680984    -7.429244    1.635620    21.033985    13.024955    27.001232    50.394680    -29.997454    -18.947710    24.614906    -120.443771    -0.017346    -12.501236    5.708577    -26.679630    2.499399    -9.294459    33.175259    12.259379    2.175264    -3.916567    8.817443    0.000000    0.000000    0.000000    1.681687    -3.469904    -10.710010    -6.682046    33.156616    -3.317072    7.458265    -21.692760    0.307420    0.000000    0.000000    0.000000    
0.059765    0.781147    -0.064293    -0.869164    0.439772    14.008869    -3.039690    18.040993    8.598440    -0.809969    11.142491    2.784180    -8.892019    14.892991    -1.043173    1.111754    2.723963    -3.597931    7.754993    13.491703    -3.096257    -151.756943    65.369225    92.601677    -31.049278    -21.170631    -127.046211    100.664665    35.046879    64.605072    -7.413184    1.681236    21.103868    13.512202    27.171198    49.910152    -29.761694    -18.787567    24.669987    -120.514420    -0.304196    -12.453172    5.317564    -26.321157    2.580297    -9.294244    33.543640    12.165137    2.332040    -4.540960    8.689856    0.000000    0.000000    0.000000    1.147501    -3.496668    -10.480845    -6.740335    34.200592    -3.314297    7.853229    -20.899115    0.531543    0.000000    0.000000    0.000000    
0.065998    0.781829    -0.059234    -0.836232    0.430779    14.127087    -3.053828    18.125870    8.572635    -0.818285    11.083119    2.774450    -8.761388    14.956627    -1.096338    0.869854    2.633018    -3.585610    7.650487    13.459628    -3.150083    -151.984085    65.381157    92.925446    -31.119608    -21.173191    -127.174347    100.843079    35.147842    64.719002    -7.450700    1.724153    21.219721    14.294890    27.286558    49.396957    -29.657545    -18.371361    24.665754    -120.332062    -0.684094    -12.151449    4.960319    -25.848326    2.418144    -9.588403    33.574764    12.174532    2.686105    -5.099265    8.760394    0.000000    0.000000    0.000000    0.585082    -3.773527    -10.482216    -6.758500    35.632355    -3.447061    7.726035    -19.963362    0.700208    0.000000    0.000000    0.000000    
0.071853    0.782676    -0.054212    -0.864767    0.406346    14.141194    -3.076446    18.133825    8.633575    -0.835905    11.145801    2.795648    -8.840917    14.730909    -1.099830    1.159580    3.046911    -3.640827    7.744976    13.272614    -3.172467    -152.131119    65.395287    93.034294    -31.061104    -21.034361    -127.158531    100.932564    35.240295    64.544434    -7.417356    1.777449    21.232031    14.642926    27.749767    49.033352    -29.654320    -18.305603    24.760233    -120.686874    -0.755478    -12.080553    4.698358    -25.382057    3.086682    -9.281849    33.786064    11.411223    2.909404    -5.647989    8.676721    0.000000    0.000000    0.000000    0.102733    -4.211915    -10.384097    -6.653253    37.213039    -3.646493    7.287095    -18.777294    0.733727    0.000000    0.000000    0.000000    
0.077582    0.783748    -0.049747    -0.872352    0.452680    14.187638    -3.147850    18.171017    8.636978    -0.772463    11.082281    2.786017    -8.926374    14.554696    -1.143044    1.190393    3.486746    -3.703466    7.671269    13.267371    -3.164933    -152.921616    65.358688    93.785049    -31.078075    -21.384220    -127.392487    100.839973    35.467762    64.888435    -7.458956    1.948735    21.225901    15.275168    27.926620    48.668125    -29.644917    -18.029699    24.791674    -120.137909    -1.140092    -11.889492    4.451628    -24.905285    3.307993    -9.386793    33.664036    11.382094    3.082764    -6.089805    8.442579    0.000000    0.000000    0.000000    -0.397703    -4.876270    -10.746327    -7.006641    38.910175    -3.515457    6.855954    -17.568960    1.016431    0.000000    0.000000    0.000000    
0.082891    0.784714    -0.045298    -0.887149    0.508324    14.243812    -3.208446    18.200745    8.596457    -0.770350    10.990591    2.768155    -8.647732    14.471213    -1.148708    0.729144    3.667076    -3.557829    7.680470    13.404699    -3.143665    -152.840881    65.505829    93.792984    -31.190437    -21.203945    -127.486877    100.821831    35.534954    65.020691    -7.392013    1.964730    21.241253    15.790002    28.662569    48.221809    -29.735659    -18.254669    24.942991    -120.658432    -0.996641    -12.025212    4.280485    -24.455280    3.637774    -9.494473    33.600838    10.958924    3.309391    -6.485002    8.482138    0.000000    0.000000    0.000000    -0.902206    -5.651867    -11.047032    -7.238551    40.761299    -3.348555    6.268471    -16.405926    1.138795    0.000000    0.000000    0.000000    
0.089200    0.785908    -0.040077    -0.880741    0.624731    14.431842    -3.338423    18.160759    8.449559    -0.611338    10.965631    2.697231    -8.825147    14.374805    -1.144140    0.835291    3.797575    -3.610028    7.713335    13.283708    -3.146805    -153.280670    65.393677    94.140625    -31.135387    -21.203623    -127.461037    100.721344    35.567818    64.964897    -7.423268    2.043161    21.138115    16.221743    29.772171    47.821602    -30.235691    -18.812500    25.114237    -120.572144    -0.788819    -12.379163    3.971417    -23.826763    3.469913    -9.905696    33.167786    11.424483    3.693827    -7.084707    8.085867    0.000000    0.000000    0.000000    -1.424502    -6.727669    -12.033559    -8.148871    42.889446    -2.515423    5.254209    -15.570784    0.909160    0.000000    0.000000    0.000000    
